<svg width="63" height="59" viewBox="0 0 63 59" fill="none" xmlns="http://www.w3.org/2000/svg">
<g id="Group 3">
<g id="Group 1">
<g id="Vector">
<path d="M63.0001 38.3383H53.4777V46.9055H63.0001V38.3383Z" fill="#0B83CB"/>
<path d="M49.7036 38.3383H40.1812V46.9055H49.7036V38.3383Z" fill="#0B83CB"/>
<path d="M36.4071 38.3383H26.8847V46.9055H36.4071V38.3383Z" fill="#0B83CB"/>
<path d="M23.1106 38.3383H13.5882V46.9055H23.1106V38.3383Z" fill="#0B83CB"/>
<path d="M9.52238 38.3383H1.14441e-05V46.9055H9.52238V38.3383Z" fill="#0B83CB"/>
</g>
<g id="Vector_2">
<path d="M63.0001 50.0547H53.4777V58.6219H63.0001V50.0547Z" fill="#CAA69B"/>
<path d="M49.7036 50.0547H40.1812V58.6219H49.7036V50.0547Z" fill="#CAA69B"/>
</g>
</g>
<g id="Group 2">
<g id="Vector_3">
<path d="M63 34.6219H53.4777V26.0547H63V34.6219Z" fill="#201C1D"/>
<path d="M49.7036 34.6219H40.1812V26.0547H49.7036V34.6219Z" fill="#201C1D"/>
<path d="M36.4071 34.6219H26.8847V26.0547H36.4071V34.6219Z" fill="#201C1D"/>
</g>
<g id="Vector_4">
<path d="M63.0001 21.9055H53.4777V13.3383H63.0001V21.9055Z" fill="#FC6C40"/>
<path d="M49.7036 21.9055H40.1812V13.3383H49.7036V21.9055Z" fill="#FC6C40"/>
<path d="M36.4071 21.9055H26.8847V13.3383H36.4071V21.9055Z" fill="#FC6C40"/>
<path d="M22.4071 21.9055H12.8847V13.3383H22.4071V21.9055Z" fill="#FC6C40"/>
</g>
<g id="Vector_5">
<path d="M63.0001 9.18906H53.4777V0.621891H63.0001V9.18906Z" fill="#D9D9D9"/>
<path d="M49.7036 9.18906H40.1812V0.621891H49.7036V9.18906Z" fill="#D9D9D9"/>
</g>
</g>
</g>
</svg>
