<svg width="150" height="35" viewBox="0 0 150 35" fill="none" xmlns="http://www.w3.org/2000/svg">
<g id="Frame" clip-path="url(#clip0_17_300)">
<path id="Vector" d="M50.7506 34.8177C48.2617 34.8177 46.0995 34.1955 44.2639 32.951C42.4595 31.7066 41.1683 29.9955 40.3906 27.8177C39.8617 26.2621 39.5972 24.4266 39.5972 22.311C39.5972 20.2266 39.8617 18.4221 40.3906 16.8977C41.1372 14.7821 42.4283 13.1177 44.2639 11.9044C46.0995 10.691 48.2617 10.0844 50.7506 10.0844C53.2394 10.0844 55.4172 10.7066 57.2839 11.951C59.1817 13.1955 60.4417 14.7666 61.0639 16.6644C61.3128 17.411 61.4372 17.971 61.4372 18.3444V18.4377C61.4372 18.7177 61.2817 18.8888 60.9706 18.951L55.6039 19.7444H55.5106C55.2306 19.7444 55.0439 19.5888 54.9506 19.2777L54.8106 18.531C54.5928 17.7221 54.1106 17.0532 53.3639 16.5244C52.6172 15.9955 51.7306 15.731 50.7039 15.731C49.7083 15.731 48.8683 15.9799 48.1839 16.4777C47.4995 16.9755 47.0172 17.6599 46.7372 18.531C46.395 19.4644 46.2239 20.7399 46.2239 22.3577C46.2239 23.9755 46.3795 25.251 46.6906 26.1844C46.9706 27.1177 47.4528 27.8488 48.1372 28.3777C48.8528 28.9066 49.7083 29.171 50.7039 29.171C51.6683 29.171 52.5083 28.9221 53.2239 28.4244C53.9706 27.8955 54.4839 27.1799 54.7639 26.2777C54.795 26.2155 54.8106 26.1221 54.8106 25.9977C54.8417 25.9666 54.8572 25.9199 54.8572 25.8577C54.8883 25.4844 55.1061 25.3288 55.5106 25.391L60.8772 26.231C61.1883 26.2932 61.3439 26.4644 61.3439 26.7444C61.3439 26.9932 61.2506 27.4599 61.0639 28.1444C60.4106 30.2288 59.135 31.8621 57.2372 33.0444C55.3706 34.2266 53.2083 34.8177 50.7506 34.8177ZM74.8356 10.0844C76.8578 10.0844 78.6622 10.4421 80.2489 11.1577C81.8356 11.8421 83.0645 12.791 83.9356 14.0044C84.8378 15.2177 85.2889 16.571 85.2889 18.0644V33.8844C85.2889 34.0399 85.2267 34.1799 85.1022 34.3044C85.0089 34.3977 84.8844 34.4444 84.7289 34.4444H79.2689C79.1133 34.4444 78.9733 34.3977 78.8489 34.3044C78.7556 34.1799 78.7089 34.0399 78.7089 33.8844V32.3444C78.7089 32.251 78.6778 32.1888 78.6156 32.1577C78.5533 32.1266 78.4911 32.1577 78.4289 32.251C77.1222 33.9621 75.0222 34.8177 72.1289 34.8177C69.7022 34.8177 67.7422 34.2266 66.2489 33.0444C64.7556 31.8621 64.0089 30.1199 64.0089 27.8177C64.0089 25.4221 64.8489 23.571 66.5289 22.2644C68.2089 20.9266 70.6045 20.2577 73.7156 20.2577H78.4756C78.6311 20.2577 78.7089 20.1799 78.7089 20.0244V18.9977C78.7089 17.971 78.3978 17.1777 77.7756 16.6177C77.1533 16.0266 76.22 15.731 74.9756 15.731C74.0111 15.731 73.2022 15.9021 72.5489 16.2444C71.9267 16.5866 71.5222 17.0688 71.3356 17.691C71.2422 18.0332 71.04 18.1888 70.7289 18.1577L65.0822 17.411C64.7089 17.3488 64.5378 17.2088 64.5689 16.991C64.6933 15.6844 65.2067 14.5021 66.1089 13.4444C67.0422 12.3866 68.2556 11.5621 69.7489 10.971C71.2733 10.3799 72.9689 10.0844 74.8356 10.0844ZM73.9022 29.9177C75.24 29.9177 76.3756 29.5599 77.3089 28.8444C78.2422 28.1288 78.7089 27.211 78.7089 26.091V24.411C78.7089 24.2555 78.6311 24.1777 78.4756 24.1777H75.1156C73.7156 24.1777 72.6111 24.4421 71.8022 24.971C71.0245 25.4999 70.6356 26.2466 70.6356 27.211C70.6356 28.051 70.9311 28.7199 71.5222 29.2177C72.1133 29.6844 72.9067 29.9177 73.9022 29.9177ZM104.811 2.33769C104.811 2.18213 104.857 2.05769 104.951 1.96435C105.075 1.83991 105.215 1.77769 105.371 1.77769H110.831C110.986 1.77769 111.111 1.83991 111.204 1.96435C111.328 2.05769 111.391 2.18213 111.391 2.33769V33.8844C111.391 34.0399 111.328 34.1799 111.204 34.3044C111.111 34.3977 110.986 34.4444 110.831 34.4444H105.371C105.215 34.4444 105.075 34.3977 104.951 34.3044C104.857 34.1799 104.811 34.0399 104.811 33.8844V32.3444C104.811 32.251 104.779 32.2044 104.717 32.2044C104.655 32.1732 104.593 32.1888 104.531 32.251C103.224 33.9621 101.435 34.8177 99.1639 34.8177C96.9861 34.8177 95.1039 34.211 93.5172 32.9977C91.9617 31.7844 90.8417 30.1199 90.1572 28.0044C89.6283 26.3866 89.3639 24.5044 89.3639 22.3577C89.3639 20.1488 89.6439 18.2199 90.2039 16.571C90.9195 14.5799 92.0394 13.0088 93.5639 11.8577C95.1194 10.6755 97.0328 10.0844 99.3039 10.0844C101.544 10.0844 103.286 10.8621 104.531 12.4177C104.593 12.511 104.655 12.5421 104.717 12.511C104.779 12.4799 104.811 12.4177 104.811 12.3244V2.33769ZM103.831 27.1644C104.453 26.0132 104.764 24.4421 104.764 22.451C104.764 20.3666 104.422 18.7332 103.737 17.551C103.022 16.3377 101.979 15.731 100.611 15.731C99.1483 15.731 98.0439 16.3377 97.2972 17.551C96.5195 18.7644 96.1306 20.4132 96.1306 22.4977C96.1306 24.3644 96.4572 25.9199 97.1106 27.1644C97.8883 28.5021 99.0395 29.171 100.564 29.171C101.964 29.171 103.053 28.5021 103.831 27.1644ZM119.903 7.75102C118.845 7.75102 117.958 7.4088 117.243 6.72435C116.558 6.0088 116.216 5.12213 116.216 4.06435C116.216 2.97546 116.558 2.0888 117.243 1.40435C117.927 0.719908 118.814 0.377686 119.903 0.377686C120.992 0.377686 121.878 0.719908 122.563 1.40435C123.247 2.0888 123.589 2.97546 123.589 4.06435C123.589 5.12213 123.232 6.0088 122.516 6.72435C121.832 7.4088 120.961 7.75102 119.903 7.75102ZM117.103 34.4444C116.947 34.4444 116.807 34.3977 116.683 34.3044C116.589 34.1799 116.543 34.0399 116.543 33.8844V10.971C116.543 10.8155 116.589 10.691 116.683 10.5977C116.807 10.4732 116.947 10.411 117.103 10.411H122.563C122.718 10.411 122.843 10.4732 122.936 10.5977C123.061 10.691 123.123 10.8155 123.123 10.971V33.8844C123.123 34.0399 123.061 34.1799 122.936 34.3044C122.843 34.3977 122.718 34.4444 122.563 34.4444H117.103ZM138.844 34.8177C136.231 34.8177 133.991 34.1332 132.124 32.7644C130.257 31.3955 128.982 29.5288 128.297 27.1644C127.862 25.7021 127.644 24.1155 127.644 22.4044C127.644 20.5688 127.862 18.9199 128.297 17.4577C129.013 15.1555 130.304 13.351 132.171 12.0444C134.037 10.7377 136.277 10.0844 138.891 10.0844C141.442 10.0844 143.619 10.7377 145.424 12.0444C147.228 13.3199 148.504 15.1088 149.251 17.411C149.748 18.9666 149.997 20.5999 149.997 22.311C149.997 23.991 149.779 25.5621 149.344 27.0244C148.659 29.451 147.384 31.3644 145.517 32.7644C143.682 34.1332 141.457 34.8177 138.844 34.8177ZM138.844 29.171C139.871 29.171 140.742 28.8599 141.457 28.2377C142.173 27.6155 142.686 26.7599 142.997 25.671C143.246 24.6755 143.371 23.5866 143.371 22.4044C143.371 21.0977 143.246 19.9932 142.997 19.091C142.655 18.0332 142.126 17.2088 141.411 16.6177C140.695 16.0266 139.824 15.731 138.797 15.731C137.739 15.731 136.853 16.0266 136.137 16.6177C135.453 17.2088 134.955 18.0332 134.644 19.091C134.395 19.8377 134.271 20.9421 134.271 22.4044C134.271 23.8044 134.379 24.8932 134.597 25.671C134.908 26.7599 135.422 27.6155 136.137 28.2377C136.884 28.8599 137.786 29.171 138.844 29.171Z" fill="white"/>
<path id="Vector_2" d="M35.0001 23.5212H29.7098V28.2808H35.0001V23.5212Z" fill="#0094ED"/>
<path id="Vector_3" d="M27.6131 23.5212H22.3229V28.2808H27.6131V23.5212Z" fill="#0094ED"/>
<path id="Vector_4" d="M20.2262 23.5212H14.936V28.2808H20.2262V23.5212Z" fill="#0094ED"/>
<path id="Vector_5" d="M12.8392 23.5212H7.54901V28.2808H12.8392V23.5212Z" fill="#0094ED"/>
<path id="Vector_6" d="M5.2902 23.5212H0V28.2808H5.2902V23.5212Z" fill="#0094ED"/>
<path id="Vector_7" d="M35.0001 30.0303H29.7098V34.7898H35.0001V30.0303Z" fill="#CAA69B"/>
<path id="Vector_8" d="M27.6131 30.0303H22.3229V34.7898H27.6131V30.0303Z" fill="#CAA69B"/>
<path id="Vector_9" d="M35 21.4566H29.7098V16.697H35V21.4566Z" fill="#201C1D"/>
<path id="Vector_10" d="M27.6131 21.4566H22.3229V16.697H27.6131V21.4566Z" fill="#201C1D"/>
<path id="Vector_11" d="M20.2262 21.4566H14.936V16.697H20.2262V21.4566Z" fill="#201C1D"/>
<path id="Vector_12" d="M35.0001 14.3919H29.7098V9.63232H35.0001V14.3919Z" fill="#FC6C40"/>
<path id="Vector_13" d="M27.6131 14.3919H22.3229V9.63232H27.6131V14.3919Z" fill="#FC6C40"/>
<path id="Vector_14" d="M20.2262 14.3919H14.936V9.63232H20.2262V14.3919Z" fill="#FC6C40"/>
<path id="Vector_15" d="M12.4484 14.3919H7.15814V9.63232H12.4484V14.3919Z" fill="#FC6C40"/>
<path id="Vector_16" d="M35.0001 7.32718H29.7098V2.56763H35.0001V7.32718Z" fill="#D9D9D9"/>
<path id="Vector_17" d="M27.6131 7.32718H22.3229V2.56763H27.6131V7.32718Z" fill="#D9D9D9"/>
</g>
<defs>
<clipPath id="clip0_17_300">
<rect width="150" height="35" fill="white"/>
</clipPath>
</defs>
</svg>
